<svg width="25" height="24" viewBox="0 0 25 24" fill="none" xmlns="http://www.w3.org/2000/svg">
<path d="M9.37268 4.31799C11.4101 3.47408 13.6993 3.47408 15.7366 4.31799C17.774 5.16191 19.3927 6.78061 20.2366 8.81799C21.0806 10.8554 21.0806 13.1446 20.2366 15.182C19.3927 17.2193 17.774 18.838 15.7366 19.682C13.6993 20.5259 11.4101 20.5259 9.37268 19.682C7.33529 18.838 5.71659 17.2193 4.87268 15.182C4.02877 13.1446 4.02877 10.8554 4.87268 8.81799C5.71659 6.78061 7.33529 5.16191 9.37268 4.31799Z" stroke="white" stroke-linecap="round" stroke-linejoin="round"/>
<path d="M5.89103 7.02653L6.08254 7.0468C6.32001 7.07194 6.55635 6.99009 6.72741 6.82347L6.95552 6.60127C7.2387 6.32545 7.62036 6.17423 8.01561 6.18127L8.02509 6.18144M20.6284 10.0011C20.3721 10.0466 20.1106 9.93332 19.9696 9.7099L19.8225 9.47701C19.4397 8.87059 18.5665 8.83968 18.1417 9.4175L17.9805 9.6369C17.9112 9.73106 17.8591 9.83668 17.8266 9.94892L17.6332 10.6151C17.6037 10.7169 17.5029 10.7807 17.3983 10.7639C17.3379 10.7542 17.2847 10.7187 17.2527 10.6666L16.4569 9.37232C16.2012 8.95641 15.749 8.70183 15.2608 8.6989L14.9319 8.69692C14.7737 8.69597 14.6221 8.6332 14.5096 8.52201L14.1345 8.15153C14.0412 8.05937 13.886 8.08046 13.8206 8.19416C13.7757 8.27241 13.7887 8.37107 13.8524 8.43496L14.6829 9.26753C14.965 9.55037 14.965 10.0082 14.683 10.2911C14.5397 10.4348 14.3426 10.5119 14.1398 10.5035L13.895 10.4934C13.5627 10.4797 13.2487 10.3373 13.0193 10.0964L12.2173 9.25381C12.1314 9.16362 11.9931 9.14844 11.8897 9.21787C11.7576 9.30663 11.7379 9.49328 11.8486 9.60767L13.3939 11.2047C13.5174 11.3323 13.6059 11.4896 13.6509 11.6615C13.7425 12.0119 13.6438 12.3847 13.3908 12.6439L13.0617 12.9811C12.723 13.3282 12.5327 13.7935 12.5311 14.2785L12.5258 15.9339C12.5239 16.5449 12.2879 17.132 11.8664 17.5744L11.4725 17.9878C11.26 18.2109 10.9634 18.3342 10.6553 18.3275C10.3129 18.32 9.99289 18.1519 9.79169 17.8746C9.66236 17.6964 9.58907 17.4829 9.58213 17.2628L9.54324 16.0302C9.53352 15.7224 9.38846 15.4344 9.1468 15.2434C8.90124 15.0493 8.75563 14.7553 8.75001 14.4423L8.73999 13.8843C8.7272 13.1722 8.1509 12.5991 7.43876 12.5904C7.09386 12.5861 6.76437 12.4468 6.52105 12.2023L6.15013 11.8296C5.64001 11.3171 5.38818 10.6019 5.46464 9.88284L5.56293 8.95844C5.58283 8.77131 5.6547 8.59349 5.7704 8.44509L6.38835 7.65251C6.47362 7.54314 6.63866 7.54212 6.72528 7.65042C6.76761 7.70335 6.83245 7.73318 6.90019 7.73089L7.98979 7.69397C8.1529 7.68844 8.29315 7.80857 8.31275 7.9706C8.32708 8.08905 8.40719 8.18921 8.51961 8.2292L9.65526 8.63324C9.76928 8.67381 9.89589 8.62566 9.95415 8.51958C9.99892 8.43805 10.0858 8.38864 10.1787 8.3918L10.8719 8.41529C11.0975 8.42294 11.3162 8.33717 11.4765 8.17823C11.7847 7.87265 11.8012 7.37977 11.514 7.05433L11.0199 6.4943M11.0199 6.4943L11.9352 6.3994C12.0977 6.38255 12.2615 6.41683 12.4036 6.49747L12.5977 6.60759C12.7802 6.71113 13.0087 6.68437 13.1624 6.54148C13.3378 6.37827 13.3663 6.11077 13.2292 5.91426L13.0937 5.72016C12.9413 5.50185 12.685 5.3802 12.4195 5.40021L12.1809 5.41819C11.7569 5.45014 11.3834 5.70911 11.2048 6.09499L11.0199 6.4943ZM11.0199 6.4943L10.5559 6.52209C10.3743 6.53298 10.203 6.61026 10.0746 6.73923C9.95193 6.86251 9.7898 6.93874 9.6166 6.95461L8.75889 7.03315M8.75889 7.03315L8.02509 6.18144M8.75889 7.03315C8.52103 6.79478 8.02509 6.18144 8.02509 6.18144" stroke="white" stroke-linecap="round" stroke-linejoin="round"/>
<path d="M13.3786 15.6394C13.3659 15.8671 13.5471 16.0587 13.7752 16.0587C13.9168 16.0587 14.0477 15.9833 14.1188 15.8609L14.1844 15.7479C14.2363 15.6585 14.2651 15.5577 14.2684 15.4544L14.2841 14.964C14.2904 14.7648 14.1262 14.6021 13.927 14.6105C13.8251 14.6148 13.7303 14.6643 13.6686 14.7456L13.5417 14.9125C13.4554 15.026 13.4051 15.1627 13.3971 15.305L13.3786 15.6394Z" stroke="white" stroke-linecap="round" stroke-linejoin="round"/>
<path d="M20.7931 10.8597C20.4371 10.957 20.2702 11.3752 20.4725 11.6931L20.8654 12.3101" stroke="white" stroke-linecap="round" stroke-linejoin="round"/>
</svg>
