<svg width="20" height="21" viewBox="0 0 20 21" fill="none" xmlns="http://www.w3.org/2000/svg">
<path d="M16.025 13.0365L13.9084 12.7949C13.6595 12.7656 13.4072 12.7932 13.1705 12.8754C12.9338 12.9577 12.7188 13.0926 12.5417 13.2699L11.0084 14.8032C8.64269 13.6 6.71985 11.6772 5.5167 9.31152L7.05837 7.76985C7.4167 7.41152 7.5917 6.91152 7.53337 6.40319L7.2917 4.30319C7.24446 3.89667 7.04936 3.52172 6.74356 3.24973C6.43777 2.97774 6.04262 2.8277 5.63337 2.82819H4.1917C3.25003 2.82819 2.4667 3.61152 2.52503 4.55319C2.9667 11.6699 8.65837 17.3532 15.7667 17.7949C16.7084 17.8532 17.4917 17.0699 17.4917 16.1282V14.6865C17.5 13.8449 16.8667 13.1365 16.025 13.0365Z" fill="#223049"/>
</svg>
