<svg width="150" height="46" viewBox="0 0 150 46" fill="none" xmlns="http://www.w3.org/2000/svg">
<g clip-path="url(#clip0_2712_17265)">
<mask id="mask0_2712_17265" style="mask-type:luminance" maskUnits="userSpaceOnUse" x="0" y="-3" width="53" height="53">
<path d="M52.0266 -2.5H0V49.3206H52.0266V-2.5Z" fill="white"/>
</mask>
<g mask="url(#mask0_2712_17265)">
<path d="M47.3617 42.6615C47.3617 43.1538 46.9542 43.5598 46.4599 43.5598H42.8354C42.7574 43.5598 42.688 43.5598 42.6187 43.5511V41.7633H46.4686C46.9629 41.7633 47.3617 42.1606 47.3617 42.6615Z" fill="#2970FF"/>
</g>
<mask id="mask1_2712_17265" style="mask-type:luminance" maskUnits="userSpaceOnUse" x="0" y="-3" width="53" height="53">
<path d="M52.0266 -2.5H0V49.3206H52.0266V-2.5Z" fill="white"/>
</mask>
<g mask="url(#mask1_2712_17265)">
<path d="M6.46863 10.4896H4.66504V21.0869H6.46863V10.4896Z" fill="#F79009"/>
</g>
<mask id="mask2_2712_17265" style="mask-type:luminance" maskUnits="userSpaceOnUse" x="0" y="-3" width="53" height="53">
<path d="M52.0266 -2.5H0V49.3206H52.0266V-2.5Z" fill="white"/>
</mask>
<g mask="url(#mask2_2712_17265)">
<path d="M9.4168 41.7633V43.5511C9.33876 43.5511 9.25205 43.5597 9.17401 43.5597C8.62773 43.5597 8.0988 43.4647 7.61321 43.2834C7.197 43.1279 6.81547 42.9206 6.46863 42.6615C6.13046 42.4024 5.82697 42.1001 5.56683 41.7633C5.3067 41.4178 5.09859 41.0378 4.94251 40.6232C4.76042 40.1396 4.66504 39.6127 4.66504 39.0686C4.66504 38.9909 4.66504 38.9045 4.67371 38.8268H4.66504V30.285H6.46863V39.0686C6.46863 39.6473 6.65072 40.1828 6.96288 40.6232C7.1363 40.8737 7.36175 41.0896 7.61321 41.271C7.86468 41.4437 8.14215 41.5819 8.43697 41.6683C8.67109 41.7374 8.91388 41.7719 9.17401 41.7719H9.4168V41.7633Z" fill="#F79009"/>
</g>
<mask id="mask3_2712_17265" style="mask-type:luminance" maskUnits="userSpaceOnUse" x="0" y="-3" width="53" height="53">
<path d="M52.0266 -2.5H0V49.3206H52.0266V-2.5Z" fill="white"/>
</mask>
<g mask="url(#mask3_2712_17265)">
<path d="M44.4135 25.0339H42.6099V38.8268H44.4135V25.0339Z" fill="#F79009"/>
</g>
<mask id="mask4_2712_17265" style="mask-type:luminance" maskUnits="userSpaceOnUse" x="0" y="-3" width="53" height="53">
<path d="M52.0266 -2.5H0V49.3206H52.0266V-2.5Z" fill="white"/>
</mask>
<g mask="url(#mask4_2712_17265)">
<path d="M40.1038 41.7632V43.5511C40.0344 43.5511 39.9564 43.5597 39.887 43.5597C39.3321 43.5597 38.7944 43.4561 38.3002 43.2747C37.884 43.1192 37.5025 42.9119 37.1556 42.6528C36.8174 42.4024 36.5226 42.1001 36.2625 41.7632C36.0024 41.4178 35.7856 41.0378 35.6382 40.6232C35.4561 40.1309 35.352 39.6041 35.352 39.0427V20.2318L26.0132 29.5422L16.6224 20.1886V22.8401H14.8188V15.853L26.0132 27.003L37.1643 15.8962V39.0427C37.1643 39.63 37.355 40.1741 37.6672 40.6232C37.8406 40.865 38.0574 41.0809 38.3002 41.2537C38.5517 41.4351 38.8291 41.5732 39.1326 41.651C39.3667 41.7201 39.6182 41.7546 39.8783 41.7546H40.1038V41.7632Z" fill="#F04438"/>
</g>
<mask id="mask5_2712_17265" style="mask-type:luminance" maskUnits="userSpaceOnUse" x="0" y="-3" width="53" height="53">
<path d="M52.0266 -2.5H0V49.3206H52.0266V-2.5Z" fill="white"/>
</mask>
<g mask="url(#mask5_2712_17265)">
<path d="M38.3 10.6019V13.1411L31.1377 20.275V17.7358L38.3 10.6019Z" fill="#15B79E"/>
</g>
<mask id="mask6_2712_17265" style="mask-type:luminance" maskUnits="userSpaceOnUse" x="0" y="-3" width="53" height="53">
<path d="M52.0266 -2.5H0V49.3206H52.0266V-2.5Z" fill="white"/>
</mask>
<g mask="url(#mask6_2712_17265)">
<path d="M47.3613 7.77765V38.8354H45.5578V7.77765C45.5578 7.69992 45.5578 7.62219 45.5491 7.54445C45.5144 7.10398 45.367 6.68941 45.1415 6.32667C45.1155 6.28349 45.0808 6.2403 45.0548 6.19712C44.8814 5.95529 44.6646 5.73937 44.4218 5.56664C44.2137 5.41981 43.9796 5.2989 43.7282 5.21253C43.4507 5.11752 43.1559 5.0657 42.8437 5.0657H38.3174V3.26062H42.835C43.39 3.26062 43.9276 3.36426 44.4218 3.54563C44.6473 3.632 44.8727 3.73564 45.0808 3.85656C45.2456 3.95156 45.4103 4.0552 45.5664 4.17612C45.8959 4.42658 46.1907 4.72023 46.4422 5.04843C46.4509 5.05707 46.4509 5.05707 46.4595 5.0657C46.6937 5.37663 46.8931 5.71346 47.0405 6.0762C47.0579 6.11939 47.0752 6.16257 47.0925 6.20576C47.2573 6.68941 47.3613 7.21626 47.3613 7.77765Z" fill="#2970FF"/>
</g>
<mask id="mask7_2712_17265" style="mask-type:luminance" maskUnits="userSpaceOnUse" x="0" y="-3" width="53" height="53">
<path d="M52.0266 -2.5H0V49.3206H52.0266V-2.5Z" fill="white"/>
</mask>
<g mask="url(#mask7_2712_17265)">
<path d="M20.8888 17.7359V20.2751L13.6831 13.0979V10.5587L20.8888 17.7359Z" fill="#15B79E"/>
</g>
<mask id="mask8_2712_17265" style="mask-type:luminance" maskUnits="userSpaceOnUse" x="0" y="-3" width="53" height="53">
<path d="M52.0266 -2.5H0V49.3206H52.0266V-2.5Z" fill="white"/>
</mask>
<g mask="url(#mask8_2712_17265)">
<path d="M33.1843 8.03672L26.0133 15.1793L21.3049 10.4896L19.2065 8.39946L18.8423 8.03672L16.9953 6.19709L16.9086 6.11072L16.6225 5.82571L16.4057 5.60979C15.9635 5.27295 15.4172 5.07431 14.8189 5.06567H9.16534C8.86185 5.06567 8.56703 5.11749 8.29823 5.20386C8.04677 5.29023 7.81265 5.41114 7.60454 5.55797C7.35308 5.7307 7.1363 5.95526 6.95421 6.20572C6.9282 6.24891 6.89351 6.29209 6.8675 6.33528C6.64205 6.68938 6.49464 7.11258 6.45996 7.55306C6.45129 7.62215 6.45129 7.69125 6.45129 7.76034V8.04535H4.66504V7.76034C4.66504 7.21623 4.76042 6.68938 4.94251 6.20572C4.95986 6.16254 4.9772 6.11936 4.99454 6.07617C5.14195 5.71343 5.33271 5.3766 5.56683 5.06567C5.5755 5.05704 5.5755 5.0484 5.58418 5.03976C5.83564 4.71157 6.13046 4.41791 6.46863 4.16745C6.62471 4.05517 6.78079 3.95153 6.94554 3.85653C7.15365 3.73561 7.37909 3.63197 7.61321 3.5456C8.0988 3.36423 8.62773 3.26923 9.17401 3.26923H14.7842C14.8016 3.26923 14.8102 3.26923 14.8276 3.26923C15.4692 3.27786 16.0762 3.41605 16.6312 3.66652C16.9867 3.83062 17.3162 4.0379 17.6197 4.27973L18.2613 4.91885L18.4174 5.07431L26.022 12.6487L30.635 8.05399H33.1843V8.03672Z" fill="#2970FF"/>
</g>
<mask id="mask9_2712_17265" style="mask-type:luminance" maskUnits="userSpaceOnUse" x="0" y="-3" width="53" height="53">
<path d="M52.0266 -2.5H0V49.3206H52.0266V-2.5Z" fill="white"/>
</mask>
<g mask="url(#mask9_2712_17265)">
<path d="M16.6224 28.5318V39.725C16.6224 40.2173 16.2149 40.6233 15.7206 40.6233C15.2264 40.6233 14.8188 40.2173 14.8188 39.725V28.5318H16.6224Z" fill="#F04438"/>
</g>
<mask id="mask10_2712_17265" style="mask-type:luminance" maskUnits="userSpaceOnUse" x="0" y="-3" width="53" height="53">
<path d="M52.0266 -2.5H0V49.3206H52.0266V-2.5Z" fill="white"/>
</mask>
<g mask="url(#mask10_2712_17265)">
<path d="M7.61328 38.8268V10.4896H9.41687V40.5973C9.33016 40.6146 9.24345 40.6232 9.15674 40.6232C8.32431 40.6232 7.64797 39.9668 7.62195 39.1377L7.61328 38.8268Z" fill="#F04438"/>
</g>
<mask id="mask11_2712_17265" style="mask-type:luminance" maskUnits="userSpaceOnUse" x="0" y="-3" width="53" height="53">
<path d="M52.0266 -2.5H0V49.3206H52.0266V-2.5Z" fill="white"/>
</mask>
<g mask="url(#mask11_2712_17265)">
<path d="M44.4134 7.72582V10.4809H42.8353C42.7573 10.4809 42.6879 10.4809 42.6185 10.4723V8.03674H37.3638L26.0134 19.3336L19.8135 13.1583L17.7325 11.0855L17.1255 10.4809L14.6716 8.03674H7.61328V7.72582C7.61328 7.52717 7.65664 7.32853 7.72601 7.15579C7.95145 6.5944 8.5064 6.18848 9.15674 6.18848H14.7409C14.7669 6.18848 14.8016 6.18848 14.8276 6.18848C15.2005 6.20575 15.5473 6.36985 15.7988 6.61168C15.8161 6.62895 15.8335 6.64622 15.8508 6.6635L16.6312 7.44081L26.0134 16.7944L35.3608 7.48399L36.1846 6.6635C36.2019 6.64622 36.2192 6.62895 36.2366 6.61168C36.4794 6.37849 36.8089 6.22302 37.1644 6.19711C37.2078 6.19711 37.2511 6.18848 37.2945 6.18848H42.8787C43.529 6.18848 44.0839 6.58577 44.3094 7.15579C44.3788 7.33717 44.4134 7.52717 44.4134 7.72582Z" fill="#F79009"/>
</g>
<g filter="url(#filter0_d_2712_17265)">
<path d="M65.7384 8.768V20H63.0024V13.264L60.4904 20H58.2824L55.7544 13.248V20H53.0184V8.768H56.2504L59.4024 16.544L62.5224 8.768H65.7384ZM74.6979 18.016H70.5059L69.8339 20H66.9699L71.0339 8.768H74.2019L78.2659 20H75.3699L74.6979 18.016ZM73.9939 15.904L72.6019 11.792L71.2259 15.904H73.9939ZM83.5667 20.112C82.7454 20.112 82.0094 19.9787 81.3587 19.712C80.7081 19.4453 80.1854 19.0507 79.7907 18.528C79.4067 18.0053 79.2041 17.376 79.1827 16.64H82.0947C82.1374 17.056 82.2814 17.376 82.5267 17.6C82.7721 17.8133 83.0921 17.92 83.4867 17.92C83.8921 17.92 84.2121 17.8293 84.4467 17.648C84.6814 17.456 84.7987 17.1947 84.7987 16.864C84.7987 16.5867 84.7027 16.3573 84.5107 16.176C84.3294 15.9947 84.1001 15.8453 83.8227 15.728C83.5561 15.6107 83.1721 15.4773 82.6707 15.328C81.9454 15.104 81.3534 14.88 80.8947 14.656C80.4361 14.432 80.0414 14.1013 79.7107 13.664C79.3801 13.2267 79.2147 12.656 79.2147 11.952C79.2147 10.9067 79.5934 10.0907 80.3507 9.504C81.1081 8.90667 82.0947 8.608 83.3107 8.608C84.5481 8.608 85.5454 8.90667 86.3027 9.504C87.0601 10.0907 87.4654 10.912 87.5187 11.968H84.5587C84.5374 11.6053 84.4041 11.3227 84.1587 11.12C83.9134 10.9067 83.5987 10.8 83.2147 10.8C82.8841 10.8 82.6174 10.8907 82.4147 11.072C82.2121 11.2427 82.1107 11.4933 82.1107 11.824C82.1107 12.1867 82.2814 12.4693 82.6227 12.672C82.9641 12.8747 83.4974 13.0933 84.2227 13.328C84.9481 13.5733 85.5347 13.808 85.9827 14.032C86.4414 14.256 86.8361 14.5813 87.1667 15.008C87.4974 15.4347 87.6627 15.984 87.6627 16.656C87.6627 17.296 87.4974 17.8773 87.1667 18.4C86.8467 18.9227 86.3774 19.3387 85.7587 19.648C85.1401 19.9573 84.4094 20.112 83.5667 20.112ZM97.4265 8.768V10.96H94.4505V20H91.7145V10.96H88.7385V8.768H97.4265ZM101.536 10.96V13.232H105.2V15.344H101.536V17.808H105.68V20H98.7996V8.768H105.68V10.96H101.536ZM113.184 20L110.848 15.76H110.192V20H107.456V8.768H112.048C112.933 8.768 113.685 8.92267 114.304 9.232C114.933 9.54133 115.403 9.968 115.712 10.512C116.021 11.0453 116.176 11.6427 116.176 12.304C116.176 13.0507 115.963 13.7173 115.536 14.304C115.12 14.8907 114.501 15.3067 113.68 15.552L116.272 20H113.184ZM110.192 13.824H111.888C112.389 13.824 112.763 13.7013 113.008 13.456C113.264 13.2107 113.392 12.864 113.392 12.416C113.392 11.9893 113.264 11.6533 113.008 11.408C112.763 11.1627 112.389 11.04 111.888 11.04H110.192V13.824ZM57.0824 38.112C56.261 38.112 55.525 37.9787 54.8744 37.712C54.2237 37.4453 53.701 37.0507 53.3064 36.528C52.9224 36.0053 52.7197 35.376 52.6984 34.64H55.6104C55.653 35.056 55.797 35.376 56.0424 35.6C56.2877 35.8133 56.6077 35.92 57.0024 35.92C57.4077 35.92 57.7277 35.8293 57.9624 35.648C58.197 35.456 58.3144 35.1947 58.3144 34.864C58.3144 34.5867 58.2184 34.3573 58.0264 34.176C57.845 33.9947 57.6157 33.8453 57.3384 33.728C57.0717 33.6107 56.6877 33.4773 56.1864 33.328C55.461 33.104 54.869 32.88 54.4104 32.656C53.9517 32.432 53.557 32.1013 53.2264 31.664C52.8957 31.2267 52.7304 30.656 52.7304 29.952C52.7304 28.9067 53.109 28.0907 53.8664 27.504C54.6237 26.9067 55.6104 26.608 56.8264 26.608C58.0637 26.608 59.061 26.9067 59.8184 27.504C60.5757 28.0907 60.981 28.912 61.0344 29.968H58.0744C58.053 29.6053 57.9197 29.3227 57.6744 29.12C57.429 28.9067 57.1144 28.8 56.7304 28.8C56.3997 28.8 56.133 28.8907 55.9304 29.072C55.7277 29.2427 55.6264 29.4933 55.6264 29.824C55.6264 30.1867 55.797 30.4693 56.1384 30.672C56.4797 30.8747 57.013 31.0933 57.7384 31.328C58.4637 31.5733 59.0504 31.808 59.4984 32.032C59.957 32.256 60.3517 32.5813 60.6824 33.008C61.013 33.4347 61.1784 33.984 61.1784 34.656C61.1784 35.296 61.013 35.8773 60.6824 36.4C60.3624 36.9227 59.893 37.3387 59.2744 37.648C58.6557 37.9573 57.925 38.112 57.0824 38.112ZM68.1741 38.112C67.1181 38.112 66.1475 37.8667 65.2621 37.376C64.3875 36.8853 63.6888 36.2027 63.1661 35.328C62.6541 34.4427 62.3981 33.4507 62.3981 32.352C62.3981 31.2533 62.6541 30.2667 63.1661 29.392C63.6888 28.5173 64.3875 27.8347 65.2621 27.344C66.1475 26.8533 67.1181 26.608 68.1741 26.608C69.2301 26.608 70.1955 26.8533 71.0701 27.344C71.9555 27.8347 72.6488 28.5173 73.1501 29.392C73.6621 30.2667 73.9181 31.2533 73.9181 32.352C73.9181 33.4507 73.6621 34.4427 73.1501 35.328C72.6381 36.2027 71.9448 36.8853 71.0701 37.376C70.1955 37.8667 69.2301 38.112 68.1741 38.112ZM68.1741 35.616C69.0701 35.616 69.7848 35.3173 70.3181 34.72C70.8621 34.1227 71.1341 33.3333 71.1341 32.352C71.1341 31.36 70.8621 30.5707 70.3181 29.984C69.7848 29.3867 69.0701 29.088 68.1741 29.088C67.2675 29.088 66.5421 29.3813 65.9981 29.968C65.4648 30.5547 65.1981 31.3493 65.1981 32.352C65.1981 33.344 65.4648 34.1387 65.9981 34.736C66.5421 35.3227 67.2675 35.616 68.1741 35.616ZM82.7522 26.768V28.96H78.1762V31.328H81.6002V33.456H78.1762V38H75.4402V26.768H82.7522ZM92.2702 26.768V28.96H89.2942V38H86.5582V28.96H83.5822V26.768H92.2702ZM109.099 26.768L106.171 38H102.859L101.067 30.608L99.2114 38H95.8994L93.0514 26.768H95.9794L97.5954 34.944L99.5954 26.768H102.603L104.523 34.944L106.155 26.768H109.099ZM117.463 36.016H113.271L112.599 38H109.735L113.799 26.768H116.967L121.031 38H118.135L117.463 36.016ZM116.759 33.904L115.367 29.792L113.991 33.904H116.759ZM127.996 38L125.66 33.76H125.004V38H122.268V26.768H126.86C127.746 26.768 128.498 26.9227 129.116 27.232C129.746 27.5413 130.215 27.968 130.524 28.512C130.834 29.0453 130.988 29.6427 130.988 30.304C130.988 31.0507 130.775 31.7173 130.348 32.304C129.932 32.8907 129.314 33.3067 128.492 33.552L131.084 38H127.996ZM125.004 31.824H126.7C127.202 31.824 127.575 31.7013 127.82 31.456C128.076 31.2107 128.204 30.864 128.204 30.416C128.204 29.9893 128.076 29.6533 127.82 29.408C127.575 29.1627 127.202 29.04 126.7 29.04H125.004V31.824ZM135.442 28.96V31.232H139.106V33.344H135.442V35.808H139.586V38H132.706V26.768H139.586V28.96H135.442Z" fill="#223049"/>
</g>
</g>
<defs>
<filter id="filter0_d_2712_17265" x="44.6982" y="0.607971" width="106.888" height="49.504" filterUnits="userSpaceOnUse" color-interpolation-filters="sRGB">
<feFlood flood-opacity="0" result="BackgroundImageFix"/>
<feColorMatrix in="SourceAlpha" type="matrix" values="0 0 0 0 0 0 0 0 0 0 0 0 0 0 0 0 0 0 127 0" result="hardAlpha"/>
<feOffset dx="2" dy="2"/>
<feGaussianBlur stdDeviation="5"/>
<feColorMatrix type="matrix" values="0 0 0 0 0.236979 0 0 0 0 0.445521 0 0 0 0 0.758333 0 0 0 0.3 0"/>
<feBlend mode="normal" in2="BackgroundImageFix" result="effect1_dropShadow_2712_17265"/>
<feBlend mode="normal" in="SourceGraphic" in2="effect1_dropShadow_2712_17265" result="shape"/>
</filter>
<clipPath id="clip0_2712_17265">
<rect width="150" height="46" fill="white"/>
</clipPath>
</defs>
</svg>
