<svg width="49" height="48" viewBox="0 0 49 48" fill="none" xmlns="http://www.w3.org/2000/svg">
<path d="M14.9002 22.384H13.3002V25.584H14.9002V22.384ZM34.1002 25.584H35.7002V22.384H34.1002V25.584ZM14.9002 30.4H13.3002V32H14.9002V30.4ZM34.1002 30.4V32H35.7002V30.4H34.1002ZM14.9002 17.6V16H13.3002V17.6H14.9002ZM34.1002 17.6H35.7002V16H34.1002V17.6ZM43.7002 11.2H45.3002V10.5376L44.833 10.0672L43.7002 11.2ZM34.1002 1.6L35.233 0.4672L34.7626 0H34.1002V1.6ZM14.9002 25.584H34.1002V22.384H14.9002V25.584ZM14.9002 32H34.1002V28.8H14.9002V32ZM14.9002 19.2H34.1002V16H14.9002V19.2ZM40.5002 44.8H8.5002V48H40.5002V44.8ZM6.9002 43.2V4.8H3.7002V43.2H6.9002ZM42.1002 11.2V43.2H45.3002V11.2H42.1002ZM8.5002 3.2H34.1002V0H8.5002V3.2ZM32.9674 2.7328L42.5674 12.3328L44.833 10.0672L35.233 0.4672L32.9674 2.7328ZM8.5002 44.8C8.07585 44.8 7.66888 44.6314 7.36883 44.3314C7.06877 44.0313 6.9002 43.6243 6.9002 43.2H3.7002C3.7002 44.473 4.20591 45.6939 5.10608 46.5941C6.00626 47.4943 7.22716 48 8.5002 48V44.8ZM40.5002 48C41.7732 48 42.9941 47.4943 43.8943 46.5941C44.7945 45.6939 45.3002 44.473 45.3002 43.2H42.1002C42.1002 43.6243 41.9316 44.0313 41.6316 44.3314C41.3315 44.6314 40.9245 44.8 40.5002 44.8V48ZM6.9002 4.8C6.9002 4.37565 7.06877 3.96869 7.36883 3.66863C7.66888 3.36857 8.07585 3.2 8.5002 3.2V0C7.22716 0 6.00626 0.505713 5.10608 1.40589C4.20591 2.30606 3.7002 3.52696 3.7002 4.8H6.9002ZM13.3002 17.6V30.4H16.5002V17.6H13.3002ZM22.9002 17.6V30.4H26.1002V17.6H22.9002ZM32.5002 17.6V30.4H35.7002V17.6H32.5002ZM13.3002 12.8H22.9002V9.6H13.3002V12.8ZM26.1002 38.4H35.7002V35.2H26.1002V38.4Z" fill="#15B79E"/>
</svg>
